<svg xmlns="http://www.w3.org/2000/svg" viewBox="0 0 500 500">
  <g fill="#231f20">
    <path d="M249.6 445.6c-108.1 0-196-88-196-196 0-108.1 87.9-196 196-196 108 0 196 87.9 196 196 0 108-88 196-196 196m0-430.6a234.5 234.5 0 1 0 0 469 234.5 234.5 0 0 0 0-469"/>
    <path d="M369.6 270.4l-31.1-20.8 31.1-21zM262 358.8v-58.1l54-36.2 43.7 29.2zM249.6 279l-44.1-29.4 44-29.5 44.1 29.5zM237 358.8l-97.7-65 43.7-29.3 54 36.2zM129.4 228.7l31.2 20.9-31.2 20.8zm107.7-88.4v58.1l-54 36.2-43.7-29.2zm25 0l97.6 65-43.7 29.3-54-36.2zm132.4 63.4l-.1-.5-.3-1c0-.3 0-.5-.2-.7l-.3-.9-.3-.6c0-.3-.2-.5-.4-.8l-.3-.6a11.3 11.3 0 0 0-1.6-2l-.5-.4-.7-.6-.6-.5-.2-.1-132.5-88.4a12.5 12.5 0 0 0-13.9 0L110.1 195l-.2.1-.6.5-.7.6-.5.5a9.9 9.9 0 0 0-1.6 2 11 11 0 0 0-.8 1.3l-.2.6-.4 1-.1.5-.3 1.1v.5l-.2 1.7v88.3l.1 1.7.1.5.3 1 .1.7.4.9.2.6a11.8 11.8 0 0 0 2.4 3.3l.5.5a10.3 10.3 0 0 0 1.3 1l.2.2 132.5 88.4a12.4 12.4 0 0 0 13.9 0L389 304l.2-.1a15.4 15.4 0 0 0 1.3-1l.5-.6a12.6 12.6 0 0 0 1.6-2l.3-.5.4-.8.3-.6.3-1 .2-.6.3-1v-.5l.2-1.7v-88.3l-.1-1.7"/>
  </g>
</svg>
