<svg xmlns="http://www.w3.org/2000/svg" width="200" height="200" viewBox="0 0 235 235">
	<path d="m 217.09169,110.27351 c -6.854,1.15677 -16.79602,-0.0459 -22.06203,-2.2121 10.9449,-0.89595 18.35591,-5.81402 21.21185,-12.488964 -3.94432,2.400468 -16.19748,5.014664 -22.95619,2.523638 -0.33593,-1.57094 -0.70238,-3.065797 -1.07373,-4.419383 -5.1463,-18.723187 -22.79739,-33.810656 -41.28034,-31.987361 1.49026,-0.597702 3.00252,-1.153144 4.52943,-1.660285 2.02285,-0.720866 13.9694,-2.646798 12.09069,-6.808979 -1.59165,-3.671948 -16.18404,2.761508 -18.92881,3.606744 3.62672,-1.343926 9.62687,-3.662288 10.2645,-7.789457 -5.55307,0.752261 -11.00841,3.353174 -15.22024,7.13138 1.52446,-1.618024 2.67637,-3.591047 2.92067,-5.719835 -14.82081,9.37246 -23.48023,28.25021 -30.48325,46.577346 C 110.60614,91.747149 105.7188,87.593419 101.34939,85.278679 89.081572,78.777604 74.406125,71.981904 51.381528,63.521088 c -0.708486,7.538301 3.765974,17.568841 16.649438,24.229304 -2.78875,-0.373112 -7.893519,0.462465 -11.969761,1.421204 1.660058,8.645558 7.090975,15.760024 21.805511,19.196514 -6.722073,0.43711 -10.20343,1.96095 -13.348867,5.2139 3.061151,6.01084 10.541794,13.07822 23.976167,11.62441 -14.951512,6.37792 -6.097871,18.18587 6.06856,16.42295 -20.741564,21.2106 -53.455326,19.63725 -72.239996,1.91144 49.038273,66.12404 155.64843,39.10063 171.5283,-24.58793 11.91479,0.099 18.90316,-4.07283 23.24081,-8.67937 z" fill="#33ccff" />
</svg>