<svg xmlns="http://www.w3.org/2000/svg" width="200" height="200" viewBox="0 0 500 500">
  <g>
    <path style="stroke:none;fill-rule:nonzero;fill:rgb(13.729858%,12.159729%,12.548828%);fill-opacity:1;" d="M 249.550781 445.578125 C 141.457031 445.578125 53.523438 357.636719 53.523438 249.550781 C 53.523438 141.460938 141.457031 53.523438 249.550781 53.523438 C 357.636719 53.523438 445.574219 141.460938 445.574219 249.550781 C 445.574219 357.636719 357.636719 445.578125 249.550781 445.578125 M 249.550781 15 C 120.007812 15 15 120.007812 15 249.550781 C 15 379.089844 120.007812 484.09375 249.550781 484.09375 C 379.085938 484.09375 484.09375 379.089844 484.09375 249.550781 C 484.09375 120.007812 379.085938 15 249.550781 15"/>
    <path style="stroke:none;fill-rule:nonzero;fill:rgb(13.729858%,12.159729%,12.548828%);fill-opacity:1;" d="M 369.644531 270.40625 L 338.464844 249.550781 L 369.644531 228.691406 Z M 262.011719 358.820312 L 262.011719 300.6875 L 316.046875 264.546875 L 359.664062 293.71875 Z M 249.550781 279.035156 L 205.464844 249.550781 L 249.550781 220.0625 L 293.628906 249.550781 Z M 237.082031 358.820312 L 139.429688 293.71875 L 183.050781 264.546875 L 237.082031 300.6875 Z M 129.449219 228.691406 L 160.632812 249.550781 L 129.449219 270.40625 Z M 237.082031 140.277344 L 237.082031 198.414062 L 183.050781 234.558594 L 139.429688 205.378906 Z M 262.011719 140.277344 L 359.664062 205.378906 L 316.046875 234.558594 L 262.011719 198.414062 Z M 394.460938 203.738281 C 394.433594 203.554688 394.390625 203.378906 394.359375 203.195312 C 394.296875 202.84375 394.234375 202.492188 394.140625 202.148438 C 394.085938 201.945312 394.011719 201.746094 393.949219 201.546875 C 393.847656 201.242188 393.75 200.9375 393.625 200.640625 C 393.542969 200.433594 393.445312 200.226562 393.347656 200.03125 C 393.21875 199.746094 393.082031 199.472656 392.925781 199.207031 C 392.808594 199.007812 392.6875 198.816406 392.570312 198.625 C 392.402344 198.367188 392.230469 198.113281 392.042969 197.871094 C 391.90625 197.6875 391.761719 197.503906 391.617188 197.328125 C 391.417969 197.101562 391.210938 196.871094 390.996094 196.65625 C 390.832031 196.488281 390.667969 196.320312 390.5 196.167969 C 390.269531 195.964844 390.035156 195.765625 389.792969 195.574219 C 389.605469 195.429688 389.421875 195.285156 389.226562 195.148438 C 389.15625 195.101562 389.089844 195.039062 389.023438 194.996094 L 256.460938 106.621094 C 252.273438 103.828125 246.820312 103.828125 242.632812 106.621094 L 110.074219 194.996094 C 110.003906 195.039062 109.9375 195.101562 109.867188 195.148438 C 109.671875 195.285156 109.488281 195.429688 109.304688 195.574219 C 109.0625 195.765625 108.824219 195.964844 108.601562 196.167969 C 108.425781 196.320312 108.265625 196.488281 108.101562 196.65625 C 107.882812 196.871094 107.675781 197.101562 107.484375 197.328125 C 107.332031 197.503906 107.1875 197.6875 107.050781 197.871094 C 106.867188 198.113281 106.691406 198.367188 106.527344 198.625 C 106.402344 198.816406 106.285156 199.007812 106.171875 199.207031 C 106.015625 199.472656 105.878906 199.746094 105.746094 200.03125 C 105.652344 200.226562 105.550781 200.433594 105.46875 200.640625 C 105.347656 200.9375 105.246094 201.242188 105.148438 201.546875 C 105.082031 201.746094 105.011719 201.945312 104.953125 202.148438 C 104.863281 202.492188 104.800781 202.84375 104.734375 203.195312 C 104.707031 203.378906 104.660156 203.554688 104.636719 203.738281 C 104.5625 204.269531 104.523438 204.8125 104.523438 205.363281 L 104.523438 293.734375 C 104.523438 294.285156 104.5625 294.828125 104.636719 295.371094 C 104.660156 295.546875 104.707031 295.726562 104.734375 295.902344 C 104.800781 296.253906 104.863281 296.605469 104.953125 296.949219 C 105.011719 297.152344 105.082031 297.351562 105.148438 297.550781 C 105.246094 297.855469 105.347656 298.160156 105.46875 298.464844 C 105.550781 298.671875 105.652344 298.871094 105.746094 299.070312 C 105.878906 299.351562 106.015625 299.625 106.171875 299.898438 C 106.285156 300.09375 106.402344 300.28125 106.527344 300.472656 C 106.691406 300.730469 106.867188 300.984375 107.050781 301.226562 C 107.1875 301.417969 107.332031 301.59375 107.484375 301.769531 C 107.675781 302 107.882812 302.226562 108.101562 302.441406 C 108.265625 302.609375 108.425781 302.777344 108.601562 302.929688 C 108.824219 303.136719 109.0625 303.335938 109.304688 303.523438 C 109.488281 303.671875 109.671875 303.8125 109.867188 303.953125 C 109.9375 303.996094 110.003906 304.058594 110.074219 304.101562 L 242.632812 392.476562 C 244.726562 393.875 247.136719 394.578125 249.550781 394.578125 C 251.957031 394.578125 254.367188 393.875 256.460938 392.476562 L 389.023438 304.101562 C 389.089844 304.058594 389.15625 303.996094 389.226562 303.953125 C 389.421875 303.8125 389.605469 303.671875 389.792969 303.523438 C 390.035156 303.335938 390.269531 303.136719 390.5 302.929688 C 390.667969 302.777344 390.832031 302.609375 390.996094 302.441406 C 391.210938 302.226562 391.417969 302 391.617188 301.769531 C 391.761719 301.59375 391.90625 301.417969 392.042969 301.226562 C 392.230469 300.984375 392.402344 300.730469 392.570312 300.472656 C 392.6875 300.28125 392.808594 300.09375 392.925781 299.898438 C 393.082031 299.625 393.21875 299.351562 393.347656 299.070312 C 393.445312 298.871094 393.542969 298.671875 393.625 298.464844 C 393.75 298.160156 393.847656 297.855469 393.949219 297.550781 C 394.011719 297.351562 394.085938 297.152344 394.140625 296.949219 C 394.234375 296.605469 394.296875 296.253906 394.359375 295.902344 C 394.390625 295.726562 394.433594 295.546875 394.460938 295.371094 C 394.53125 294.828125 394.574219 294.285156 394.574219 293.734375 L 394.574219 205.363281 C 394.574219 204.8125 394.53125 204.269531 394.460938 203.738281"/>
  </g>
</svg>