<svg xmlns="http://www.w3.org/2000/svg" width="200" height="200" viewBox="0 0 44 44">
  <g>
    <g>
      <g>
        <polygon points="19.563,8.997 12.576,7.982 12.43,8.076 1.519,15.063 13.646,34.001 29.197,24.044" fill-opacity="0.2"/>
        <polygon points="12.68,8.468 2.16,15.204 13.787,33.359 28.557,23.904 19.285,9.427" fill-opacity="0.4"/>
        <linearGradient x1="968.3965" gradientTransform="matrix(0.8421 -0.5393 -0.5393 -0.8421 -2514.9053 -2135.7598)" y1="-3168.1904" x2="968.3965" gradientUnits="userSpaceOnUse" y2="-3189.7529" id="SVGID_1_">
          <stop stop-color="#ffe600" offset="0"/>
          <stop stop-color="#ffb51f" offset="1"/>
        </linearGradient>
        <polygon fill="url(#SVGID_1_)" points="1.883,14.77 13.51,32.928 28.279,23.47 19.007,8.992 12.402,8.033"/>
        <polygon fill="#ffffff" fill-opacity="0.3" points="2.453,14.895 8.683,24.624 22.82,15.572 18.845,9.365 12.523,8.446"/>
        <rect x="4.557" y="14.209" transform="matrix(0.8422 -0.5392 0.5392 0.8422 -5.849 8.849)" fill="#87530e" width="15.269" height="0.413"/>
        <rect x="6.058" y="16.554" transform="matrix(0.8422 -0.5392 0.5392 0.8422 -6.8762 10.028)" fill="#87530e" width="15.27" height="0.413"/>
      </g>
      <g>
        <polygon points="29.779,6.062 22.598,2.533 22.407,2.583 8.206,6.319 14.689,30.969 34.93,25.646" fill-opacity="0.2"/>
        <polygon points="22.541,3.094 8.849,6.694 15.063,30.326 34.287,25.271 29.331,6.428" fill-opacity="0.4"/>
        <linearGradient x1="1117.5723" gradientTransform="matrix(0.9671 -0.2544 -0.2544 -0.9671 -1859.5211 -2741.9878)" y1="-3132.8447" x2="1117.5723" gradientUnits="userSpaceOnUse" y2="-3157.2832" id="SVGID_2_">
          <stop stop-color="#ffe600" offset="0"/>
          <stop stop-color="#ffb51f" offset="1"/>
        </linearGradient>
        <polygon fill="url(#SVGID_2_)" points="8.701,6.129 14.917,29.764 34.141,24.707 29.184,5.862 22.392,2.528"/>
        <polygon fill="#ffffff" fill-opacity="0.3" points="9.271,6.462 12.603,19.126 31.002,14.288 28.878,6.208 22.379,3.015"/>
        <rect x="11.29" y="9.106" transform="matrix(0.9671 -0.2543 0.2543 0.9671 -1.7195 5.3782)" fill="#87530e" width="17.305" height="0.468"/>
        <rect x="12.093" y="12.157" transform="matrix(0.9672 -0.2542 0.2542 0.9672 -2.4681 5.6806)" fill="#87530e" width="17.305" height="0.467"/>
        <rect x="12.896" y="15.208" transform="matrix(0.9672 -0.2542 0.2542 0.9672 -3.2176 5.9847)" fill="#87530e" width="17.305" height="0.469"/>
        <polygon fill="#ed8b0a" points="22.392,2.528 22.225,2.814 24.061,7.409 29.014,6.149 29.184,5.862"/>
        <linearGradient x1="1121.9678" gradientTransform="matrix(0.9671 -0.2544 -0.2544 -0.9671 -1859.5211 -2741.9878)" y1="-3135.4507" x2="1127.6875" gradientUnits="userSpaceOnUse" y2="-3135.4507" id="SVGID_3_">
          <stop stop-color="#ffe600" offset="0"/>
          <stop stop-color="#ffb51f" offset="1"/>
        </linearGradient>
        <polygon fill="url(#SVGID_3_)" points="22.392,2.528 24.225,7.122 29.184,5.862"/>
      </g>
      <g>
        <path d="M 16.752 9.791 C 14.919001 16.775002 13.087001 23.76 11.255001 30.744 C 11.230001 30.842 11.205001 30.932999 11.179001 31.032999 C 18.024 32.828 24.863 34.622997 31.710001 36.419 C 32.995003 36.756 34.283 37.093998 35.575 37.434 L 35.575 37.432 L 37.967 38.059 C 39.821 30.993998 41.675 23.923998 43.531 16.855999 C 43.535 16.842 43.538 16.83 43.540997 16.82 L 16.752 9.791" fill-opacity="0.2"/>
        <path d="M 17.535 9.998 C 15.746 16.818 13.958 23.633999 12.167999 30.456001 C 18.994 32.247 25.817999 34.037003 32.644997 35.828003 C 34.226997 36.243004 35.804996 36.657 37.388996 37.070004 C 39.176994 30.250004 40.964996 23.433002 42.753998 16.614004 L 17.535 9.998" fill-opacity="0.4"/>
        <linearGradient x1="485.5234" gradientTransform="matrix(0.9673 0.2538 -0.2538 0.9673 -39.8245 -1633.2002)" y1="1574.8301" x2="485.5234" gradientUnits="userSpaceOnUse" y2="1595.167" id="SVGID_4_">
          <stop stop-color="#ececec" offset="0"/>
          <stop stop-color="#dcdcdc" offset="1"/>
        </linearGradient>
        <path fill="url(#SVGID_4_)" d="M 17.535 9.998 C 15.815 16.555 14.094999 23.112999 12.374001 29.668999 C 19.2 31.459 26.025002 33.25 32.85 35.039997 C 34.432 35.454998 36.01 35.868996 37.593 36.282997 C 39.313 29.725998 41.032997 23.170998 42.753 16.613997 L 17.535 9.998"/>
        <linearGradient x1="687.5508" gradientTransform="matrix(0.9673 0.2538 -0.2538 0.9673 -12.1653 -2534.6914)" y1="2472.5098" x2="687.5508" gradientUnits="userSpaceOnUse" y2="2455.4961" id="SVGID_5_">
          <stop stop-color="#ffffff" offset="0"/>
          <stop stop-color="#ffffff" offset="0.3571"/>
          <stop stop-color="#0aabff" offset="1"/>
        </linearGradient>
        <polygon fill="url(#SVGID_5_)" points="18.723,12.028 40.725,17.8 36.406,34.256 14.406,28.484"/>
        <g>
          <linearGradient x1="685.459" gradientTransform="matrix(0.9673 0.2538 -0.2538 0.9673 -12.1653 -2534.6914)" y1="2455.4863" x2="685.459" gradientUnits="userSpaceOnUse" y2="2472.5063" id="SVGID_6_">
            <stop stop-color="#0032bf" offset="0"/>
            <stop stop-color="#0032bf" offset="0.0714"/>
            <stop stop-color="#7de0ff" offset="0.9231"/>
            <stop stop-color="#7de0ff" offset="1"/>
          </linearGradient>
          <polygon fill="url(#SVGID_6_)" points="15.66,23.701 33.613,28.411 32.357,33.193 14.406,28.484"/>
          <polygon fill="#453e60" points="37.124,29.823 37.27,27.6 32.307,21.977 31.543,22.07 30.863,22.038 29.359,20.193       28.343,20.788 25.814,17.866 24.555,19.303 22.832,18.555 16.616,20.059 15.483,24.378 20.023,25.337"/>
          <linearGradient x1="691.1484" gradientTransform="matrix(0.9673 0.2538 -0.2538 0.9673 -12.1653 -2534.6914)" y1="2459.3467" x2="691.1484" gradientUnits="userSpaceOnUse" y2="2467.6602" id="SVGID_7_">
            <stop stop-color="#ffffff" offset="0"/>
            <stop stop-color="#82d4ff" offset="1"/>
          </linearGradient>
          <path fill="url(#SVGID_7_)" d="M 25.691 18.988 C 25.691 18.988 25.706 20.342001 25.657 20.526001 C 25.609 20.710001 24.536 20.674002 24.536 20.674002 L 24.691 21.205002 L 24.593 21.573002 L 24.460001 22.079002 L 25.306002 23.922003 C 25.306002 23.922003 26.618002 27.164003 30.406002 27.520002 C 34.193 27.874002 37.035004 29.409002 37.035004 29.409002 L 37.185005 28.837002 L 37.261005 27.603003 L 32.627007 22.351002 C 32.419006 22.197002 32.258007 22.071001 32.179005 21.996002 L 31.986004 22.018002 C 31.908005 22.283 31.875004 22.850002 31.875004 22.850002 L 31.373003 22.718002 L 30.859003 22.042002 L 30.588003 21.971003 L 29.520002 20.413002 L 29.151003 20.316002 L 28.338003 20.793001 L 28.113003 20.534 L 28.861002 21.813 C 28.861002 21.813 28.474003 21.153 28.115002 20.529999 L 27.154001 19.421 L 27.154001 19.421 L 27.154001 19.421 L 26.634 18.823 L 26.411001 18.764 L 26.050001 18.147 L 25.810001 17.869999 L 25.695002 17.999998 L 25.95 18.836998 L 25.691 18.988 z" fill-opacity="0.9"/>
          <linearGradient x1="682.9502" gradientTransform="matrix(0.9673 0.2538 -0.2538 0.9673 -12.1653 -2534.6914)" y1="2466.8984" x2="682.9502" gradientUnits="userSpaceOnUse" y2="2468.7593" id="SVGID_8_">
            <stop stop-color="#a3c600" offset="0"/>
            <stop stop-color="#0a4d0a" offset="1"/>
          </linearGradient>
          <path fill="url(#SVGID_8_)" d="M 28.482 27.557 C 27.249 26.498 18.69 23.921999 15.821 23.085 L 15.357 24.854 C 19.016 25.826 29.859 28.74 28.482 27.557 z"/>
          <linearGradient x1="690.6289" gradientTransform="matrix(0.9673 0.2538 -0.2538 0.9673 -12.1653 -2534.6914)" y1="2466.9482" x2="690.6289" gradientUnits="userSpaceOnUse" y2="2474.833" id="SVGID_9_">
            <stop stop-color="#a8c600" offset="0"/>
            <stop stop-color="#0a4d0a" offset="1"/>
          </linearGradient>
          <path fill="url(#SVGID_9_)" d="M 29.771 27.895 C 29.771 27.895 32.759 28.678001 33.396 29.434 C 33.931 30.071 23.99 30.039 20.355999 30.043 L 36.408997 34.253998 L 37.423996 30.383999 C 37.020996 29.589998 36.483997 28.528 36.483997 28.528 L 29.771 27.895 z"/>
        </g>
        <g>
          <polygon fill="#ffffff" fill-opacity="0.3" points="17.535,9.998 17.113,11.606 15.006,19.636 14.212,22.662 14.05,23.282 13.874,23.956 13.749,24.432 12.796,28.063 12.375,29.669 12.439,29.686 42.521,16.553"/>
        </g>
      </g>
    </g>
  </g>
  <g>
    <g>
      <g>
        <g>
          <path d="M 16.395 17.994 L 16.395 18.807 C 16.395 18.807 16.395 18.807 16.394001 18.807 L 16.394001 18.807 L 16.395 17.994 C 9.991 17.995 4.799 23.186 4.799 29.59 C 4.8 35.898 9.84 41.033 16.117 41.177 L 16.124 41.182 L 16.395 41.182 C 22.797 41.18 27.990002 35.994 27.990002 29.588 C 27.99 23.186 22.798 17.994 16.395 17.994 z" fill-opacity="0.2"/>
          <circle r="10.781" fill-opacity="0.4" cx="16.395" cy="29.588"/>
          <g>
            <path fill="#0b0c0c" d="M 5.49 28.575 C 5.49 22.531 10.388 17.635002 16.428 17.635002 L 16.428 17.635002 C 22.47 17.635002 27.369 22.535002 27.369 28.575 L 27.369 28.575 C 27.369 34.615 22.472 39.509003 16.428 39.509003 L 16.428 39.509003 C 10.388 39.516 5.49 34.62 5.49 28.575 L 5.49 28.575 z M 16.429 39.011 C 19.313002 39.011 21.921001 37.841003 23.806 35.954002 L 23.806 35.954002 C 21.92 37.843 19.313 39.011 16.429 39.011 L 16.429 39.011 C 14.619001 39.011 12.918001 38.548 11.431001 37.737003 L 11.431001 37.737003 C 12.919 38.548 14.619 39.011 16.429 39.011 L 16.429 39.011 z M 6.501 28.575 C 6.501 31.316 7.6099997 33.793 9.409 35.591 L 9.409 35.591 C 11.207001 37.392998 13.687 38.503 16.432 38.503 L 16.432 38.503 C 19.176998 38.503 21.654999 37.391 23.453 35.591 L 23.453 35.591 C 25.254 33.793 26.361 31.317 26.361 28.575 L 26.361 28.575 C 26.361 25.830002 25.254 23.351002 23.453 21.553001 L 23.453 21.553001 C 21.654999 19.754002 19.176998 18.645 16.432 18.645 L 16.432 18.645 C 13.686999 18.645 11.206999 19.756 9.408999 21.553001 L 9.408999 21.553001 C 7.61 23.354 6.501 25.832 6.501 28.575 L 6.501 28.575 z M 23.811 35.952 C 25.701 34.064 26.867 31.456 26.867 28.575 L 26.867 28.575 C 26.865 31.456 25.697 34.064 23.811 35.952 L 23.811 35.952 z M 7.625 34.177 C 7.625 34.175 7.625 34.175 7.624 34.172997 L 7.624 34.172997 C 7.625 34.175 7.625 34.175 7.625 34.177 L 7.625 34.177 z M 5.995 28.575 C 5.995 30.632 6.592 32.554 7.621 34.169 L 7.621 34.169 C 6.591 32.557 5.995 30.632 5.995 28.575 L 5.995 28.575 L 5.995 28.575 z M 23.807 21.196 C 25.699 23.084 26.866999 25.694 26.866999 28.572998 L 26.866999 28.572998 C 26.866999 24.725998 24.782999 21.359999 21.682999 19.555998 L 21.682999 19.555998 C 22.458 20.008 23.174 20.562 23.807 21.196 L 23.807 21.196 z M 5.995 28.575 C 5.995 26.838001 6.4189997 25.202002 7.167 23.769001 L 7.167 23.769001 C 6.418 25.205 5.995 26.84 5.995 28.575 L 5.995 28.575 z M 9.231 21.375 L 9.051 21.197 L 9.051 21.197 L 9.051 21.197 L 9.231 21.375 L 9.231 21.375 z"/>
            <linearGradient x1="1115.9961" gradientTransform="matrix(1 0 0 1 -1110 -3792)" y1="3820.5762" x2="1136.8682" gradientUnits="userSpaceOnUse" y2="3820.5762" id="SVGID_10_">
              <stop stop-color="#393d41" offset="0"/>
              <stop stop-color="#c4c3bf" offset="0.5055"/>
              <stop stop-color="#2b3034" offset="1"/>
            </linearGradient>
            <circle fill="url(#SVGID_10_)" r="10.436" cx="16.432" cy="28.576"/>
            <circle fill="#393e41" r="9.391" cx="16.429" cy="28.575"/>
            <circle fill="#d3cfcc" r="8.617" cx="16.361" cy="28.507"/>
            <linearGradient x1="1126.3291" gradientTransform="matrix(1 0 0 1 -1110 -3792)" y1="3812.0928" x2="1126.3291" gradientUnits="userSpaceOnUse" y2="3828.9229" id="SVGID_11_">
              <stop stop-color="#3f4447" offset="0"/>
              <stop stop-color="#383b40" offset="1"/>
            </linearGradient>
            <circle fill="url(#SVGID_11_)" r="8.415" cx="16.33" cy="28.508"/>
            <radialGradient gradientTransform="matrix(1 0 0 1 -1110 -3792)" gradientUnits="userSpaceOnUse" r="7.543" cx="1126.3594" id="SVGID_12_" cy="3820.5342">
              <stop stop-color="#4a4d4f" offset="0"/>
              <stop stop-color="#2b3033" offset="1"/>
            </radialGradient>
            <circle fill="url(#SVGID_12_)" r="7.543" cx="16.359" cy="28.534"/>
            <circle fill="#787d7f" r="5.807" cx="16.372" cy="28.693"/>
            <circle fill="#13181b" r="5.808" cx="16.372" cy="28.488"/>
            <path fill="#ffffff" d="M 17.49 28.215 C 17.669 28.783 17.352 29.385 16.786 29.565 L 16.469 28.559 L 17.49 28.215 z" fill-opacity="0.3"/>
            <linearGradient x1="1122.293" gradientTransform="matrix(1 0 0 1 -1110 -3792)" y1="3816.3857" x2="1126.4843" gradientUnits="userSpaceOnUse" y2="3820.5776" id="SVGID_13_">
              <stop stop-color="#75ba85" offset="0"/>
              <stop stop-color="#726ebd" offset="1"/>
            </linearGradient>
            <path fill="url(#SVGID_13_)" d="M 16.398 22.686 C 13.191001 22.686 10.592001 25.284 10.592001 28.489 L 16.488 28.489 C 16.489 29.398 16.398 22.686 16.398 22.686" fill-opacity="0.4"/>
            <path fill="#ffffff" d="M 20.532 24.404 C 18.286 22.113998 14.61 22.074999 12.32 24.32 C 10.03 26.564 9.992 30.24 12.235 32.53 L 20.532 24.404 z" fill-opacity="0.2"/>
          </g>
        </g>
      </g>
    </g>
  </g>
</svg>