<svg xmlns="http://www.w3.org/2000/svg" viewBox="0 0 44 44">
  <path fill-opacity=".2" d="M19.6 9l-7-1-.2.1-10.9 7L13.6 34l15.6-10z"/>
  <path fill-opacity=".4" d="M12.7 8.5L2.2 15.2l11.6 18.2 14.8-9.5-9.3-14.5z"/>
  <linearGradient id="a" x1="968.4" x2="968.4" y1="-3168.2" y2="-3189.8" gradientTransform="scale(1 -1) rotate(32.6 -4905 -3227.2)" gradientUnits="userSpaceOnUse">
    <stop offset="0" stop-color="#ffe600"/>
    <stop offset="1" stop-color="#ffb51f"/>
  </linearGradient>
  <path fill="url(#a)" d="M1.9 14.8l11.6 18.1 14.8-9.4L19 9l-6.6-1z"/>
  <path fill="#fff" fill-opacity=".3" d="M2.5 14.9l6.2 9.7 14.1-9-4-6.2-6.3-1z"/>
  <path fill="#87530e" d="M5.7 18.3l12.9-8.2.2.3-12.9 8.3zm1.5 2.4l12.9-8.2.2.3-12.9 8.3z"/>
  <path fill-opacity=".2" d="M29.8 6.1l-7.2-3.6-.2.1L8.2 6.3 14.7 31l20.2-5.4z"/>
  <path fill-opacity=".4" d="M22.5 3.1L8.8 6.7l6.3 23.6 19.2-5-5-18.9z"/>
  <linearGradient id="b" x1="1117.6" x2="1117.6" y1="-3132.8" y2="-3157.3" gradientTransform="scale(1 -1) rotate(14.7 -11530.7 -5818.2)" gradientUnits="userSpaceOnUse">
    <stop offset="0" stop-color="#ffe600"/>
    <stop offset="1" stop-color="#ffb51f"/>
  </linearGradient>
  <path fill="url(#b)" d="M8.7 6.1l6.2 23.7 19.2-5.1-4.9-18.8-6.8-3.4z"/>
  <path fill="#fff" fill-opacity=".3" d="M9.3 6.5l3.3 12.6L31 14.3l-2.1-8.1L22.4 3z"/>
  <path fill="#87530e" d="M11.5 11.3L28.3 7v.5l-16.6 4.4zm.8 3.1L29.1 10l.1.5-16.7 4.4zm.8 3L30 13v.5l-16.6 4.4z"/>
  <path fill="#ed8b0a" d="M22.4 2.5l-.2.3 1.9 4.6L29 6.1l.2-.2z"/>
  <linearGradient id="c" x1="1122" x2="1127.7" y1="-3135.5" y2="-3135.5" gradientTransform="scale(1 -1) rotate(14.7 -11530.7 -5818.2)" gradientUnits="userSpaceOnUse">
    <stop offset="0" stop-color="#ffe600"/>
    <stop offset="1" stop-color="#ffb51f"/>
  </linearGradient>
  <path fill="url(#c)" d="M22.4 2.5l1.8 4.6 5-1.2z"/>
  <path fill-opacity=".2" d="M16.8 9.8l-5.5 21-.1.2 20.5 5.4 3.9 1 2.4.7 5.5-21.2-26.7-7.1"/>
  <path fill-opacity=".4" d="M17.5 10l-5.3 20.5 20.4 5.3 4.8 1.3 5.4-20.5L17.5 10"/>
  <linearGradient id="d" x1="485.5" x2="485.5" y1="1574.8" y2="1595.2" gradientTransform="rotate(14.7 6309.7 -971)" gradientUnits="userSpaceOnUse">
    <stop offset="0" stop-color="#ececec"/>
    <stop offset="1" stop-color="#dcdcdc"/>
  </linearGradient>
  <path fill="url(#d)" d="M17.5 10l-5.1 19.7L32.9 35l4.7 1.3 5.2-19.7L17.5 10"/>
  <linearGradient id="e" x1="687.6" x2="687.6" y1="2472.5" y2="2455.5" gradientTransform="rotate(14.7 9817.4 -1314.4)" gradientUnits="userSpaceOnUse">
    <stop offset="0" stop-color="#fff"/>
    <stop offset=".4" stop-color="#fff"/>
    <stop offset="1" stop-color="#0aabff"/>
  </linearGradient>
  <path fill="url(#e)" d="M18.7 12l22 5.8-4.3 16.5-22-5.8z"/>
  <linearGradient id="f" x1="685.5" x2="685.5" y1="2455.5" y2="2472.5" gradientTransform="rotate(14.7 9817.4 -1314.4)" gradientUnits="userSpaceOnUse">
    <stop offset="0" stop-color="#0032bf"/>
    <stop offset=".1" stop-color="#0032bf"/>
    <stop offset=".9" stop-color="#7de0ff"/>
    <stop offset="1" stop-color="#7de0ff"/>
  </linearGradient>
  <path fill="url(#f)" d="M15.7 23.7l17.9 4.7-1.2 4.8-18-4.7z"/>
  <path fill="#453e60" d="M37.1 29.8l.2-2.2-5-5.6-.8.1-.6-.1-1.5-1.8-1.1.6-2.5-2.9-1.2 1.4-1.8-.7-6.2 1.5-1.1 4.3 4.5.9z"/>
  <linearGradient id="g" x1="691.1" x2="691.1" y1="2459.3" y2="2467.7" gradientTransform="rotate(14.7 9817.4 -1314.4)" gradientUnits="userSpaceOnUse">
    <stop offset="0" stop-color="#fff"/>
    <stop offset="1" stop-color="#82d4ff"/>
  </linearGradient>
  <path fill="url(#g)" fill-opacity=".9" d="M25.7 19v1.5c0 .2-1.2.2-1.2.2l.2.5-.1.4-.1.5.8 1.8s1.3 3.3 5.1 3.6c3.8.4 6.6 2 6.6 2l.2-.7v-1.2l-4.6-5.2-.4-.4H32l-.1.9-.5-.2-.5-.7h-.3l-1-1.6h-.4l-.9.4-.2-.3.8 1.3-.8-1.3-1-1-.5-.7h-.2l-.3-.7-.3-.2-.1.1.3.8-.3.2z"/>
  <linearGradient id="h" x1="683" x2="683" y1="2466.9" y2="2468.8" gradientTransform="rotate(14.7 9817.4 -1314.4)" gradientUnits="userSpaceOnUse">
    <stop offset="0" stop-color="#a3c600"/>
    <stop offset="1" stop-color="#0a4d0a"/>
  </linearGradient>
  <path fill="url(#h)" d="M28.5 27.6a73.8 73.8 0 0 0-12.7-4.5l-.4 1.8c3.6 1 14.5 3.8 13 2.7z"/>
  <linearGradient id="i" x1="690.6" x2="690.6" y1="2466.9" y2="2474.8" gradientTransform="rotate(14.7 9817.4 -1314.4)" gradientUnits="userSpaceOnUse">
    <stop offset="0" stop-color="#a8c600"/>
    <stop offset="1" stop-color="#0a4d0a"/>
  </linearGradient>
  <path fill="url(#i)" d="M29.8 27.9s3 .8 3.6 1.5c.5.7-9.4.6-13 .6l16 4.3 1-4-1-1.8-6.6-.6z"/>
  <path fill="#fff" fill-opacity=".3" d="M17.5 10l-.4 1.6-2.1 8-.8 3.1-.1.6-.2.7-.2.4-.9 3.7-.4 1.6 30.1-13.1z"/>
  <path fill-opacity=".2" d="M16.4 18v.8-.8a11.6 11.6 0 0 0-.3 23.2h.3a11.6 11.6 0 0 0 0-23.2z"/>
  <circle cx="16.4" cy="29.6" r="10.8" fill-opacity=".4"/>
  <path fill="#0b0c0c" d="M5.5 28.6c0-6 4.9-11 11-11a11 11 0 0 1-.1 22c-6 0-11-5-11-11zm11 10.4a10.7 10.7 0 0 0-.1 0zm-10-10.4c0 2.7 1.1 5.2 3 7a9.9 9.9 0 0 0 14 0 9.9 9.9 0 0 0 0-14 9.9 9.9 0 0 0-14 0 9.9 9.9 0 0 0-3 7zM23.8 36zM7.6 34.2zM6 28.6zm17.8-7.4zM6 28.6zm3.2-7.2l-.1-.2.1.2z"/>
  <linearGradient id="j" x1="1116" x2="1136.9" y1="3820.6" y2="3820.6" gradientTransform="translate(-1110 -3792)" gradientUnits="userSpaceOnUse">
    <stop offset="0" stop-color="#393d41"/>
    <stop offset=".5" stop-color="#c4c3bf"/>
    <stop offset="1" stop-color="#2b3034"/>
  </linearGradient>
  <circle cx="16.4" cy="28.6" r="10.4" fill="url(#j)"/>
  <circle cx="16.4" cy="28.6" r="9.4" fill="#393e41"/>
  <circle cx="16.4" cy="28.5" r="8.6" fill="#d3cfcc"/>
  <linearGradient id="k" x1="1126.3" x2="1126.3" y1="3812.1" y2="3828.9" gradientTransform="translate(-1110 -3792)" gradientUnits="userSpaceOnUse">
    <stop offset="0" stop-color="#3f4447"/>
    <stop offset="1" stop-color="#383b40"/>
  </linearGradient>
  <circle cx="16.3" cy="28.5" r="8.4" fill="url(#k)"/>
  <radialGradient id="l" cx="1126.4" cy="3820.5" r="7.5" gradientTransform="translate(-1110 -3792)" gradientUnits="userSpaceOnUse">
    <stop offset="0" stop-color="#4a4d4f"/>
    <stop offset="1" stop-color="#2b3033"/>
  </radialGradient>
  <circle cx="16.4" cy="28.5" r="7.5" fill="url(#l)"/>
  <circle cx="16.4" cy="28.7" r="5.8" fill="#787d7f"/>
  <circle cx="16.4" cy="28.5" r="5.8" fill="#13181b"/>
  <path fill="#fff" fill-opacity=".3" d="M17.5 28.2a1 1 0 0 1-.7 1.4l-.3-1 1-.4z"/>
  <linearGradient id="m" x1="1122.3" x2="1126.5" y1="3816.4" y2="3820.6" gradientTransform="translate(-1110 -3792)" gradientUnits="userSpaceOnUse">
    <stop offset="0" stop-color="#75ba85"/>
    <stop offset="1" stop-color="#726ebd"/>
  </linearGradient>
  <path fill="url(#m)" fill-opacity=".4" d="M16.4 22.7a5.8 5.8 0 0 0-5.8 5.8h5.9l-.1-5.8"/>
  <path fill="#fff" fill-opacity=".2" d="M20.5 24.4a5.8 5.8 0 0 0-8.3 8.1l8.3-8.1z"/>
</svg>
