<svg xmlns="http://www.w3.org/2000/svg" height="200" width="200">
	<rect height="100%" width="100%" fill="#4875b4"/>
	<g transform="scale(0.6) translate(66, 62)">
		<path d="m63.992,167.85,0-90.884-30.208,0,0,90.884,30.208,0zm-15.1-103.3c10.534,0,17.091-6.9789,17.091-15.7-0.19632-8.9179-6.5566-15.703-16.891-15.703-10.333,0-17.09,6.7852-17.09,15.703,0,8.7216,6.5553,15.7,16.693,15.7h0.19633z" fill="#fff"/>
		<path d="m80.712,167.85,30.208,0,0-50.754c0-2.7163,0.19632-5.4298,0.99398-7.3715,2.1838-5.4271,7.1542-11.048,15.499-11.048,10.931,0,15.304,8.3343,15.304,20.552v48.621h30.206v-52.112c0-27.916-14.903-40.905-34.778-40.905-16.296,0-23.451,9.1089-27.426,15.313h0.2017v-13.181h-30.208c0.39641,8.528,0,90.884,0,90.884z" fill="#fff"/>
	</g>
</svg>